<svg width="85" height="76" viewBox="0 0 85 76" fill="none" xmlns="http://www.w3.org/2000/svg">
<g clip-path="url(#clip0_27_168)">
<path d="M79.714 72.1269L78.7668 72.9608L75.9407 68.4105L77.3386 67.1797L79.714 72.1269Z" fill="#A0616A"/>
<path d="M80.3897 73.4354L77.4771 76L77.4532 75.9501C77.2577 75.543 77.1897 75.0474 77.264 74.5723C77.3383 74.0972 77.549 73.6815 77.8496 73.4168L78.1192 72.4017L79.3743 72.0742L79.6286 71.8503L80.3897 73.4354Z" fill="#2F2E41"/>
<path d="M63.4824 74.3121L62.3527 74.3119L61.8153 68.4109L63.4826 68.411L63.4824 74.3121Z" fill="#A0616A"/>
<path d="M63.5222 75.908L60.0481 75.9078V75.8483C60.0481 75.3627 60.1906 74.8969 60.4442 74.5535C60.6978 74.2101 61.0417 74.0172 61.4003 74.0172L62.035 73.3652L63.219 74.0173H63.5222L63.5222 75.908Z" fill="#2F2E41"/>
<path d="M75.1763 38.2146L65.0455 38.5163L64.0413 40.2161C64.0413 40.2161 64.1282 39.6168 64.0509 40.275C63.9736 40.9333 62.0191 54.0575 62.3886 54.4977C62.758 54.9379 61.688 57.9769 61.6095 58.1622C61.5309 58.3476 60.6839 67.4954 61.6095 68.2476L61.9572 71.4407H63.575C63.575 71.4407 65.1957 68.9008 64.8696 68.4403C64.5434 67.9799 65.4763 66.4489 65.5119 65.6279C65.5476 64.8069 65.8882 61.0832 65.6243 60.4861C65.3604 59.8891 65.0037 57.6484 65.6731 56.7798C66.3426 55.9112 69.4648 45.2367 69.4648 45.2367C69.4648 45.2367 70.3722 57.7508 70.37 58.7334C70.3673 60.0113 70.9869 59.3788 70.9869 60.5007C70.9869 60.7273 73.0047 66.5525 74.3607 68.3734L77.165 71.2946L78.4593 69.98V68.0813C78.4593 68.0813 77.2599 64.5582 76.8415 63.9916C76.4231 63.425 74.8781 61.6905 74.8781 60.8973C74.8781 60.104 74.1508 59.8277 74.64 58.776C75.1292 57.7243 74.9618 57.271 74.7944 56.8177C74.6271 56.3644 74.9445 37.792 74.9445 37.792L75.1763 38.2146Z" fill="#2F2E41"/>
<path d="M70.9519 10.6758C72.6426 10.6758 74.0132 8.8197 74.0132 6.53014C74.0132 4.24058 72.6426 2.38452 70.9519 2.38452C69.2612 2.38452 67.8906 4.24058 67.8906 6.53014C67.8906 8.8197 69.2612 10.6758 70.9519 10.6758Z" fill="#A0616A"/>
<path d="M73.3976 39.7992L74.2593 36.2864L75.8099 36.673L74.8012 40.3431C74.8625 40.5581 74.8783 40.7921 74.8469 41.0186C74.8154 41.2451 74.7379 41.4553 74.623 41.6254C74.5082 41.7956 74.3606 41.919 74.1968 41.9818C74.033 42.0445 73.8595 42.0442 73.6959 41.9808C73.5322 41.9174 73.3849 41.7934 73.2704 41.6228C73.1559 41.4522 73.0789 41.2417 73.0479 41.0151C73.0169 40.7884 73.0332 40.5545 73.095 40.3397C73.1568 40.1249 73.2616 39.9378 73.3976 39.7992Z" fill="#A0616A"/>
<path d="M55.526 33.0105L57.6374 30.6597L58.7974 32.1057L56.4998 34.4835C56.467 34.7097 56.3884 34.9191 56.2726 35.0881C56.1568 35.2571 56.0085 35.379 55.8444 35.4401C55.6803 35.5012 55.5068 35.4992 55.3435 35.4341C55.1802 35.369 55.0336 35.2436 54.92 35.0718C54.8065 34.9001 54.7306 34.6888 54.7008 34.4619C54.6711 34.2349 54.6887 34.0012 54.7517 33.787C54.8146 33.5729 54.9204 33.3867 55.0572 33.2495C55.194 33.1124 55.3564 33.0296 55.526 33.0105Z" fill="#A0616A"/>
<path d="M67.2866 5.80501C67.6167 5.94376 67.9348 6.02556 68.1495 5.65895C68.3641 5.29233 68.308 4.87314 68.6273 4.6964C68.8943 4.57517 69.1851 4.5934 69.4427 4.74753C69.4891 4.77089 69.5344 4.79718 69.5786 4.82347C69.6034 4.79426 69.6282 4.76652 69.6552 4.74022C69.8581 4.5448 70.1086 4.46221 70.3552 4.50945C70.175 4.62733 70.0267 4.81893 69.9313 5.05717C70.0197 5.11706 70.1093 5.17694 70.1999 5.22806C70.5806 5.43898 70.9924 5.52688 71.4026 5.48479C71.8128 5.44271 72.2101 5.2718 72.563 4.98561C72.2092 6.24756 72.4843 6.69742 73.0031 7.84984L73.0236 7.91702C72.9718 7.61468 73.6502 7.2656 73.6502 7.70378C73.6204 8.15271 73.5479 8.59455 73.4345 9.01833C74.1 7.66142 74.4926 6.07375 74.2348 4.55034C74.1798 4.23047 74.155 3.88723 74.0051 3.62724C73.8551 3.36872 73.579 3.21681 73.3612 3.36287C73.3341 2.86751 73.2085 2.39132 72.9976 1.98492C72.7867 1.57852 72.4985 1.25711 72.1635 1.05485C71.8285 0.852588 71.4592 0.777043 71.0951 0.836244C70.7309 0.895445 70.3854 1.08718 70.0952 1.39106C69.8256 1.67296 69.6131 2.04249 69.3726 2.37113C69.1321 2.69977 68.8473 2.99918 68.5108 3.08098C68.2973 3.1321 68.0567 3.10143 67.8863 3.28401C67.6889 3.4958 67.6868 3.86825 67.6878 4.2261C67.881 4.21864 68.0714 4.28932 68.2347 4.42912C68.0348 4.43592 67.8415 4.52792 67.6825 4.69203C67.6794 4.69459 67.6765 4.69753 67.6738 4.7008C67.6156 5.30256 67.6393 5.42964 67.2866 5.80501Z" fill="#2F2E41"/>
<path d="M78.0573 19.3935C77.986 18.9311 77.845 18.4936 77.643 18.1084C77.4411 17.7232 77.1826 17.3987 76.8837 17.155C76.8614 17.0003 76.8218 16.9013 76.7609 16.872C75.8908 16.4531 73.4617 14.5179 73.4617 14.5179L73.2581 12.305L68.8626 12.019L67.7377 14.5179C67.7377 14.5179 64.8242 14.9145 64.8782 16.3589C64.1726 17.5508 61.0316 22.8762 59.149 26.398C58.2492 28.0813 57.6365 29.3529 57.7152 29.5635C57.9801 30.2727 57.6079 29.7942 57.1915 29.9223C56.7751 30.0505 56.977 30.3837 56.9864 30.8749C56.9959 31.3662 55.5637 32.3999 55.5637 32.3999C56.4375 32.8229 57.5321 34.5616 57.5321 34.5616C57.5321 34.5616 58.592 33.0494 58.7845 32.8913C58.9769 32.7333 59.0842 32.5026 59.693 32.2164C60.3018 31.9302 60.0463 31.7123 60.0905 31.1057C60.1347 30.4992 60.2829 30.9477 61.1378 30.3881C61.9927 29.8286 61.2987 30.0421 61.5353 29.2775C61.7719 28.5128 61.6962 28.9314 62.4659 28.2992C62.9285 27.9193 63.3881 27.3612 64.0275 26.398C64.4518 25.7588 64.9553 24.9414 65.5921 23.878C65.5964 23.8708 65.6005 23.8633 65.6048 23.8561C65.6476 24.7181 65.6806 25.5804 65.7002 26.398C65.7559 28.7212 65.7027 30.6801 65.453 31.2195C65.1025 31.9767 64.5093 34.5105 64.027 36.7353C63.9336 37.1667 63.9171 37.622 63.9789 38.0637C64.0407 38.5055 64.1789 38.9211 64.3822 39.2765C64.5856 39.6319 64.8483 39.9169 65.1488 40.1081C65.4492 40.2993 65.7789 40.3913 66.1107 40.3766C69.1025 40.243 73.4804 39.934 74.3337 39.2559C74.7978 39.3457 75.2563 39.4822 75.7055 39.6642C75.7055 39.6642 76.0074 37.6198 76.1081 37.3472C76.2087 37.0746 76.2087 36.802 76.6113 36.1205C77.0139 35.439 76.7119 35.439 76.5106 34.8938C76.3094 34.3486 76.6113 34.6212 77.1145 33.5308C77.6178 32.4404 77.1145 33.1219 77.0139 32.3041C76.9132 31.4864 77.0139 31.8953 77.4165 30.8049C77.7501 29.9014 77.9455 28.7159 78.1744 26.398C78.2218 25.9186 78.2706 25.3918 78.3223 24.8078C78.4933 22.8785 78.277 20.818 78.0573 19.3935Z" fill="#FFA600"/>
<path d="M29.9738 72.7131C29.9067 72.7173 29.8403 72.6934 29.7836 72.6447C29.7268 72.5961 29.6825 72.525 29.6566 72.4411C29.6307 72.3572 29.6244 72.2645 29.6387 72.1756C29.653 72.0868 29.6871 72.006 29.7364 71.9443L29.7589 71.8234C29.7559 71.8137 29.7529 71.8041 29.7499 71.7944C29.6824 71.5782 29.5691 71.3939 29.4244 71.2646C29.2797 71.1353 29.11 71.0668 28.9367 71.0676C28.7633 71.0685 28.594 71.1387 28.45 71.2695C28.306 71.4003 28.1938 71.5857 28.1274 71.8026C27.862 72.6681 27.5241 73.5352 27.4409 74.4503C27.4043 74.8549 27.4197 75.2649 27.4866 75.6623C26.8633 73.821 26.5396 71.8198 26.5376 69.7943C26.5374 69.286 26.5583 68.7782 26.6 68.273C26.6345 67.8589 26.6824 67.4478 26.7436 67.0396C27.0777 64.8247 27.7949 62.7488 28.8365 60.9823C29.3406 60.6098 29.7483 60.037 30.0047 59.341C30.0975 59.0909 30.1631 58.8238 30.1995 58.5482C30.1426 58.5583 29.9851 57.3855 30.028 57.3135C29.9487 57.1507 29.8069 57.0697 29.7203 56.9108C29.2899 56.1205 28.6968 56.2584 28.3872 57.3325C27.7258 57.7845 27.7194 58.5342 28.1252 59.2552C28.3834 59.7139 28.4189 60.3346 28.6454 60.8257C28.6221 60.8661 28.5979 60.9052 28.5746 60.9456C28.1485 61.6875 27.7772 62.4842 27.4659 63.3242C27.5416 62.3831 27.4512 61.4312 27.2023 60.5467C26.9499 59.7224 26.477 59.0281 26.0605 58.3155C25.5602 57.4595 24.5343 57.8331 24.4462 58.9182C24.4453 58.9287 24.4445 58.9392 24.4437 58.9497C24.5055 58.9969 24.5661 59.0471 24.6253 59.1002C24.6998 59.1675 24.7575 59.2637 24.7908 59.3762C24.8242 59.4887 24.8317 59.6122 24.8123 59.7306C24.793 59.849 24.7476 59.9566 24.6823 60.0395C24.617 60.1224 24.5347 60.1766 24.4462 60.1951L24.4372 60.197C24.4592 60.4989 24.4982 60.7982 24.5537 61.0921C24.0194 63.8903 25.1729 64.9095 26.82 64.9553C26.8564 64.9805 26.8918 65.0058 26.9282 65.0298C26.6154 66.23 26.4192 67.4802 26.3446 68.749C26.3023 69.4975 26.3048 70.2495 26.352 70.9975L26.3492 70.9709C26.2299 70.1392 25.9022 69.3887 25.4216 68.8462C24.7078 68.0521 23.6993 67.7597 22.9291 67.1214C22.8473 67.0502 22.7521 67.0122 22.6549 67.0119C22.5576 67.0116 22.4623 67.049 22.3802 67.1196C22.2981 67.1902 22.2326 67.2911 22.1915 67.4105C22.1504 67.5298 22.1353 67.6626 22.1481 67.7932C22.1491 67.8025 22.1502 67.8118 22.1512 67.8211C22.266 67.8844 22.3778 67.9573 22.4859 68.0395C22.5478 68.0868 22.6083 68.1369 22.6676 68.19C22.742 68.2573 22.7997 68.3535 22.8331 68.466C22.8664 68.5785 22.8739 68.702 22.8546 68.8204C22.8352 68.9388 22.7899 69.0464 22.7246 69.1293C22.6592 69.2122 22.5769 69.2664 22.4885 69.2849L22.4794 69.2868C22.4729 69.2881 22.4673 69.2893 22.4608 69.2906C22.6569 69.9248 22.9322 70.5086 23.2746 71.0164C23.6087 73.4591 25.0436 73.6909 26.5786 72.9795H26.5795C26.7479 73.9706 26.9919 74.9352 27.3076 75.858H29.9086C29.918 75.8188 29.9263 75.7784 29.9347 75.7393C29.694 75.7598 29.4523 75.7403 29.215 75.6812C29.408 75.3606 29.601 75.0374 29.794 74.7167C29.7983 74.7107 29.8023 74.7044 29.8061 74.6978C29.904 74.5336 30.0028 74.3708 30.1007 74.2067L30.1007 74.2065C30.106 73.7034 30.0632 73.2014 29.9738 72.7131Z" fill="#F2F2F2"/>
<path d="M9.96753 67.3856L10.6852 68.4128L14.0176 65.0695L12.9584 63.5535L9.96753 67.3856Z" fill="#C78F8F"/>
<path d="M11.1436 67.9537L10.3312 66.9202L10.1317 66.667L8.06323 68.9064L8.60129 69.6765L9.23463 69.1265L8.94367 70.1667L10.3702 72.2085C10.4386 72.3064 10.5283 72.3722 10.6262 72.3962C10.7241 72.4202 10.8251 72.4013 10.9145 72.3421C11.0039 72.2828 11.077 72.1865 11.123 72.0671C11.1691 71.9476 11.1858 71.8114 11.1707 71.6782L10.8628 68.9809L11.4054 68.2861L11.1436 67.9537Z" fill="#2F2E41"/>
<path d="M25.74 29.9866L25.5125 33.3504C25.5125 33.3504 25.1153 35.8848 25.3903 35.6793C25.6653 35.4739 25.1722 36.3985 25.3021 37.2002C25.432 38.0019 24.1929 43.9807 24.7541 43.3613C25.3153 42.742 24.4297 47.0207 23.8697 49.1316C23.6982 49.7841 23.522 50.4445 23.3446 51.1002C23.3096 51.233 23.2746 51.3641 23.2385 51.4969C23.0086 52.3501 22.7787 53.1906 22.5583 53.9838C22.5268 54.0944 22.4964 54.205 22.4661 54.314C22.4649 54.3171 22.4649 54.3203 22.4638 54.3203C21.738 56.9068 21.1161 58.9418 20.8676 59.2784C20.7381 59.4538 18.6835 61.4636 16.6125 63.4765C14.4388 65.589 12.2477 67.7062 12.2477 67.7062L10.2012 64.799C10.2012 64.799 10.2502 64.78 10.3423 64.7421C10.5127 64.6757 10.8277 64.5509 11.2408 64.385C12.9629 63.6977 10.7752 62.628 12.3387 61.8633C12.7797 61.6485 13.0737 61.481 13.1402 61.3925C13.5288 60.879 14.0503 59.6545 14.2965 60.168C14.5427 60.6815 15.6593 56.8658 15.9813 56.4881C16.154 56.2843 16.7175 55.3316 17.2005 54.4941C17.6159 53.7736 17.9729 53.1369 17.9729 53.1369C17.9729 53.1369 17.9799 52.7956 17.9904 52.2521C18.0056 51.4479 18.0278 50.1981 18.0511 48.9467C18.0499 48.9451 18.0499 48.9451 18.0511 48.9451C18.0593 48.4743 18.0674 48.0034 18.0756 47.5563C18.0814 47.2102 18.0872 46.8769 18.0931 46.5688C18.1083 45.6461 18.1187 44.9477 18.1187 44.7739C18.1187 44.2035 18.1187 44.6475 18.4513 44.303C18.5009 44.2502 18.5481 44.1932 18.5925 44.1324C18.6636 44.0457 18.7291 43.9511 18.7885 43.8496C18.813 43.7785 18.6601 43.8749 18.4618 43.8212C18.3544 43.792 18.255 43.723 18.1747 43.622C17.757 43.1133 18.2074 41.5491 18.2074 41.5491C17.2577 38.9768 17.3266 36.8675 17.7711 35.2416C18.1034 34.075 18.631 33.0285 19.3123 32.1844C19.5716 31.8497 19.8542 31.5497 20.156 31.2885L20.1851 31.0752L20.506 28.7226C20.6766 28.5956 20.8541 28.4863 21.0368 28.3955C21.6067 28.1186 22.2182 28.0361 22.8173 28.1553C23.4126 28.272 23.989 28.5247 24.5219 28.9027C24.9575 29.199 25.3663 29.5627 25.74 29.9866Z" fill="#2F2E41"/>
<path d="M16.7788 72.6266L17.8185 72.7575L18.6946 67.2679L17.16 67.0747L16.7788 72.6266Z" fill="#C78F8F"/>
<path d="M19.7732 74.7784L18.2284 73.0262L18.2984 72.0181L17.9391 72.0023L16.826 71.9533H16.8249L16.5518 71.9407L16.0886 75.4705L16.8692 75.5684L17.0757 74.5888L17.3639 75.6316L17.7769 75.6838L19.4302 75.8923C19.4442 75.8939 19.4594 75.8955 19.4734 75.8955C19.5391 75.8956 19.6041 75.8768 19.6641 75.8403C19.724 75.8038 19.7775 75.7504 19.8211 75.6838C19.8888 75.5834 19.9302 75.4557 19.9389 75.3203C19.9457 75.2186 19.9342 75.1161 19.9054 75.0217C19.8765 74.9273 19.8312 74.8438 19.7732 74.7784Z" fill="#2F2E41"/>
<path d="M22.5582 53.9837C22.1626 56.8988 20.4883 63.7339 19.4756 67.7346C19.0147 69.5626 18.6927 70.7998 18.6927 70.7998L18.1677 70.5754H18.1665L17.2786 70.1962L16.9554 70.0571H16.9542L16.5622 69.8881C16.5622 69.8881 16.6077 66.6238 16.6124 63.4764C16.6159 62.1571 16.6112 60.8567 16.5926 59.8266C16.5716 58.7032 16.5354 57.899 16.4759 57.7394C16.2297 57.0852 16.6416 57.0157 17.0768 56.8514C17.5131 56.6855 17.1724 56.4359 17.0032 55.905C16.889 55.551 17.1141 55.0786 17.274 54.81C17.3181 54.7344 17.3652 54.6621 17.4151 54.5935C17.4151 54.5935 17.3381 54.5572 17.2005 54.494C17.6158 53.7735 17.9728 53.1368 17.9728 53.1368C17.9728 53.1368 17.9798 52.7955 17.9903 52.252C18.0055 51.4478 18.0277 50.198 18.051 48.9466C18.0498 48.945 18.0498 48.945 18.051 48.945C18.0592 48.4741 18.0673 48.0033 18.0755 47.5562C18.7429 48.2498 19.3916 48.9292 19.9797 49.5581C19.9804 49.5588 19.981 49.5598 19.9814 49.5609C19.9818 49.562 19.982 49.5632 19.982 49.5644C21.3949 51.0765 22.4555 52.2899 22.6049 52.6754C22.6725 52.8492 22.6492 53.3138 22.5582 53.9837Z" fill="#2F2E41"/>
<path d="M19.9167 24.3003L20.1354 27.0467L20.0068 30.648L25.8972 29.7003L26.4506 24.3003L25.7454 24.3098L19.9167 24.3003Z" fill="#FFB6B6"/>
<path d="M24.9272 15.4297L22.7104 13.0596L21.5467 12.968L19.82 14.466L19.3972 17.387L18.3972 20.6763L19.8639 29.5531C19.8639 29.5531 20.0014 30.1901 19.641 30.2666C19.2805 30.3431 19.3237 31.2821 19.3237 31.2821C19.3237 31.2821 19.3971 32.0958 19.0471 32.1675C18.6971 32.2391 17.7637 32.2391 18.5804 33.6612C19.3972 35.0832 25.857 29.7049 25.857 29.7049L26.7952 23.0381C26.7952 23.0381 28.6148 19.7286 26.6552 17.8332L24.9272 15.4297Z" fill="#FFA600"/>
<path d="M15.2497 35.5843C15.152 35.4192 15.0823 35.2272 15.0453 35.0216C15.0084 34.8161 15.0052 34.6021 15.0359 34.3947C15.0666 34.1873 15.1306 33.9916 15.2232 33.8213C15.3159 33.651 15.435 33.5103 15.5721 33.409L18.3606 20.7366L20.1041 21.9253L17.0675 34.0717C17.1778 34.395 17.1967 34.7619 17.1206 35.1028C17.0445 35.4437 16.8788 35.7349 16.6547 35.9214C16.4306 36.1078 16.1638 36.1765 15.9049 36.1143C15.6459 36.0522 15.4128 35.8636 15.2497 35.5843Z" fill="#C78F8F"/>
<path d="M20.2203 14.3488C20.2203 14.3488 19.7219 13.9901 19.381 15.5424C19.1081 16.7851 16.8934 24.1871 16.8652 25.9867C16.6829 26.039 16.5187 26.172 16.3984 26.3646C16.278 26.5572 16.2084 26.7985 16.2006 27.0506L18.9388 27.5475C19.4173 27.001 19.5428 26.2629 19.3577 26.0438L19.9522 23.8449L22.4325 16.8487L20.584 14.5994L20.2203 14.3488Z" fill="#FFA600"/>
<path d="M34.8516 31.4187C34.887 31.2126 34.8885 30.9986 34.8562 30.7917C34.8239 30.5847 34.7585 30.3899 34.6645 30.2209C34.5706 30.0519 34.4504 29.9129 34.3125 29.8136C34.1746 29.7143 34.0222 29.6571 33.8663 29.6462L27.4697 19.7532L26.1128 21.9457L32.7296 31.1194C32.7334 31.4755 32.8335 31.8173 33.0109 32.0802C33.1884 32.343 33.4309 32.5085 33.6924 32.5454C33.954 32.5823 34.2165 32.488 34.4301 32.2803C34.6438 32.0727 34.7937 31.7661 34.8516 31.4187Z" fill="#C78F8F"/>
<path d="M23.5886 15.1826C23.5886 15.1826 23.9234 14.5673 24.7265 15.7673C25.3694 16.7279 29.73 22.1051 30.3302 23.7112C30.5112 23.6517 30.7017 23.6753 30.8717 23.7786C31.0418 23.8818 31.1816 24.0586 31.2692 24.2813L28.9589 26.3329C28.3529 26.1203 28.0041 25.5283 28.101 25.2224L26.8628 23.5878L22.3922 18.7321L23.3407 15.6216L23.5886 15.1826Z" fill="#FFA600"/>
<path d="M54.3903 35.8849C54.2057 35.7986 54.0532 35.618 53.9654 35.3817C53.8776 35.1454 53.8613 34.8721 53.92 34.6198C53.9325 34.5687 53.9482 34.5192 53.9667 34.4717L52.2001 31.8585L52.8638 30.178L54.9981 34.1121C55.1377 34.2316 55.2442 34.4103 55.3009 34.6204C55.3576 34.8305 55.3613 35.0601 55.3115 35.2733C55.2823 35.3943 55.2358 35.5063 55.1747 35.603C55.1135 35.6996 55.0389 35.779 54.9551 35.8366C54.8713 35.8942 54.7799 35.9288 54.6862 35.9386C54.5925 35.9484 54.4983 35.9331 54.4089 35.8935C54.4027 35.8908 54.3965 35.8879 54.3903 35.8849Z" fill="#FFB6B6"/>
<path d="M43.0641 16.0363C43.0057 16.4053 42.9995 16.7859 43.0458 17.158C43.058 17.2633 43.0748 17.3675 43.0962 17.4701C43.1753 17.8535 43.2505 18.2067 43.323 18.5255C43.3656 18.7235 43.4095 18.91 43.4514 19.0831C43.6931 20.094 43.882 20.6663 44.0158 20.7867C44.0807 20.8456 44.1459 20.8996 44.209 20.9522C44.5329 21.2206 44.7675 21.4151 44.6106 21.9103C44.5878 21.9811 44.5607 22.0492 44.5296 22.1139C44.4776 22.2227 44.4202 22.3265 44.3576 22.4246C44.322 22.4801 44.2891 22.5387 44.2591 22.6C44.22 22.6783 44.2031 22.7443 44.2241 22.8041C44.2507 22.8776 44.3243 22.9142 44.4823 22.9245C44.5074 22.926 44.5361 22.9281 44.567 22.928C44.5769 22.9289 44.5873 22.9283 44.5988 22.9284C44.6192 22.9288 44.6422 22.929 44.6656 22.9278C44.8608 22.9228 45.1127 23.062 45.3823 23.2744C46.1778 23.9019 47.1153 25.1649 47.1267 25.1806L52.9802 33.2859L53.0942 33.1824L53.3652 32.936L53.4588 32.8513L53.5658 32.7539L54.0313 32.332L54.2666 32.1191L52.7567 28.3652L52.5924 27.9572L52.4515 27.6051L49.5692 20.4368L48.4243 17.9725L48.1687 17.4234L47.08 15.082C46.9263 14.7507 46.7258 14.4636 46.4902 14.2372C46.2545 14.0108 45.9883 13.8495 45.7066 13.7624C45.4249 13.6754 45.1333 13.6643 44.8484 13.7299C44.5635 13.7954 44.291 13.9363 44.0464 14.1445C44.0299 14.1585 44.0135 14.1729 43.9973 14.1875C43.5209 14.6166 43.1863 15.2794 43.0641 16.0363Z" fill="#FFA600"/>
<path d="M43.4526 72.6768L42.3803 72.6645L41.9055 66.9324L43.4883 66.9505L43.4526 72.6768Z" fill="#FFB6B6"/>
<path d="M43.7371 72.007L43.4571 71.9818L42.3149 71.876L41.9473 71.8428L41.9403 72.8808L40.2275 74.4545C40.1429 74.5323 40.0789 74.6447 40.0449 74.7753C40.0108 74.9059 40.0084 75.0478 40.0381 75.1803C40.0678 75.3128 40.1281 75.429 40.21 75.5119C40.2919 75.5948 40.3913 75.6401 40.4935 75.6411L42.6252 75.6648L42.9986 74.641L43.1351 75.6711L43.9401 75.6806L43.7371 72.007Z" fill="#2F2E41"/>
<path d="M54.7434 71.6157L53.7185 72.0425L51.9882 66.7719L53.5011 66.1421L54.7434 71.6157Z" fill="#FFB6B6"/>
<path d="M54.8655 70.8613L54.5925 70.9514L53.4807 71.3164L53.1224 71.4349L53.3476 72.4288L52.0653 74.6281C52.002 74.7368 51.9659 74.87 51.9624 75.0084C51.9589 75.1468 51.9882 75.2831 52.0459 75.3973C52.1036 75.5116 52.1868 75.598 52.2832 75.6438C52.3797 75.6896 52.4845 75.6924 52.5822 75.652L54.6205 74.8035L54.7477 73.6738L55.1082 74.5997L55.8772 74.2789L54.8655 70.8613Z" fill="#2F2E41"/>
<path d="M41.2956 24.478L39.2491 32.532L39.1815 33.1765C38.6658 33.8395 39.3136 34.0579 39.0707 34.2328C38.8278 34.4076 38.6645 34.8978 38.9918 34.9853C39.3191 35.0729 40.3744 66.4865 41.7664 67.7063C43.1584 68.926 44.0056 69.8082 43.7499 68.0223C43.6469 67.3027 43.7926 63.4446 44.0033 59.0939C44.0272 58.6009 44.4045 58.079 44.0772 57.5996C43.7499 57.1202 44.1175 56.8047 44.1381 56.4069C44.4317 50.7256 44.7707 45.1167 44.7707 45.1167C44.7707 45.1167 46.9402 55.2063 47.5035 54.4252C48.0669 53.6441 47.8439 55.5672 48.0161 56.1418C48.1599 56.622 47.5461 57.5652 48.4482 57.5797C49.3503 57.5942 51.4689 67.4013 51.6838 67.3903C52.1096 67.3683 53.3066 67.4304 54.0173 67.2323C54.3683 67.1344 52.8103 59.7094 51.5092 53.2977C51.4055 52.7863 50.8408 52.7744 51.204 51.7873C51.5671 50.8001 49.7602 44.4127 49.9152 44.1173C50.3268 43.3332 50.4835 42.9923 50.0777 42.941C49.6718 42.8896 49.5519 43.1912 49.5299 42.4305C49.508 41.6699 49.4379 39.7943 49.4379 39.7943C49.4379 39.7943 49.1439 32.3763 47.0851 28.278L46.9095 25.8429L41.2956 24.478Z" fill="#2F2E41"/>
<path d="M46.4083 9.10107L43.6944 9.62438L43.5306 12.2856L42.1914 15.1225C42.1914 15.1225 39.2146 17.9594 41.2907 22.4409C40.5006 26.3014 39.7151 30.0037 38.9662 32.472C38.3829 37.37 43.6091 37.8395 49.5837 36.106C49.5837 36.106 49.5013 34.0117 48.9591 33.0048C48.4169 31.998 48.7121 31.7781 48.7121 31.7781L48.3332 29.8971C48.5476 27.1782 47.8237 26.9341 47.4835 25.6779L48.5164 12.6437L46.4083 9.10107Z" fill="#FFA600"/>
<path d="M33.3799 31.8835C33.4087 31.6218 33.5117 31.3857 33.6671 31.2253C33.8224 31.065 34.0179 30.993 34.2118 31.0248C34.2512 31.0321 34.29 31.0438 34.3279 31.0598L35.9 28.2278L37.2418 28.8024L34.7785 32.3666C34.7174 32.5744 34.6072 32.749 34.4652 32.8631C34.3231 32.9771 34.1572 33.0243 33.9932 32.9973C33.805 32.9637 33.6344 32.8303 33.5189 32.6263C33.4033 32.4224 33.3523 32.1647 33.3771 31.9098C33.378 31.901 33.3789 31.8922 33.3799 31.8835Z" fill="#FFB6B6"/>
<path d="M47.3435 14.2511C47.305 14.1863 47.263 14.1231 47.2187 14.0614C46.9105 13.6313 46.5136 13.3373 46.08 13.2177C45.6463 13.0982 45.1961 13.1588 44.7883 13.3916C44.7487 13.4136 44.709 13.4389 44.6705 13.4642C43.2762 14.3916 42.5237 15.0095 42.4327 15.2986C42.4012 15.3966 42.3743 15.4929 42.3475 15.5861C42.3218 15.6778 42.2973 15.7647 42.2717 15.8437C42.1643 16.1818 42.0407 16.392 41.7256 16.2971C41.6211 16.2626 41.5204 16.21 41.4258 16.1408C41.3826 16.1123 41.3429 16.0823 41.3056 16.0538C41.1703 15.9528 41.0722 15.8801 41.0057 15.9464C40.9416 16.0112 40.9392 16.1755 40.9976 16.5563C41.0169 16.7152 41.0137 16.8777 40.9882 17.035C40.9111 17.494 40.7903 17.9374 40.6289 18.3543C40.387 19.0078 40.115 19.64 39.8145 20.2472L37.0388 25.6066L36.8509 25.9684L36.6456 26.365L35.0074 29.5282L35.1043 29.6625L35.5103 30.2234L35.6002 30.3482L35.6819 30.4619L35.8931 30.7543L36.0914 31.0276L40.5169 26.1454L41.0104 25.6002L41.8948 24.6238L43.7067 22.6251L47.1358 18.3275C47.3523 18.0584 47.5264 17.7328 47.6477 17.3703C47.769 17.0079 47.835 16.616 47.8417 16.2181C47.8417 16.1913 47.8429 16.166 47.8429 16.1391C47.8442 15.4502 47.6675 14.7823 47.3435 14.2511Z" fill="#FFA600"/>
<path d="M44.7791 9.00401C46.4539 9.00401 47.8117 7.16536 47.8117 4.89727C47.8117 2.62918 46.4539 0.790527 44.7791 0.790527C43.1042 0.790527 41.7465 2.62918 41.7465 4.89727C41.7465 7.16536 43.1042 9.00401 44.7791 9.00401Z" fill="#FFB6B6"/>
<path d="M48.7979 10.5919C49.2049 11.3807 49.4772 12.2823 49.5949 13.2313C49.2669 13.5155 48.8851 13.6648 48.4958 13.661C48.4825 13.592 48.4693 13.5229 48.4542 13.4539C48.3414 12.9191 48.1735 12.4086 47.9556 11.9372C47.9855 12.4455 47.9346 12.9565 47.8064 13.436C47.6007 13.3093 47.3802 13.2323 47.1548 13.2083C46.9713 13.2083 46.7903 13.2661 46.626 13.3771C46.4353 12.5203 46.2596 11.7326 46.135 11.1674C46.1312 12.5843 44.5976 13.8196 42.9243 13.6406C42.8639 13.5894 43.4701 11.2595 43.4116 11.2057C43.2775 11.0855 43.1472 10.9551 43.0169 10.8272C43.5646 9.68143 44.1595 8.4538 44.0575 8.26966C44.065 8.49729 43.4645 9.59192 42.811 10.6252C42.4484 10.2646 44.5089 4.3975 43.4909 3.92179C43.4739 4.12895 43.2492 4.12895 42.9753 4.08548C42.9031 3.74367 42.7956 3.41735 42.6561 3.11615C42.6743 3.41956 42.6473 3.72482 42.5768 4.01387C42.3064 4.01397 42.0367 4.05254 41.7723 4.12895C41.7111 3.99857 41.6436 3.87383 41.5702 3.75555C41.5774 3.8997 41.5743 4.04446 41.5607 4.18778C41.2907 4.26706 41.0678 4.35913 41.0357 4.43331C40.8242 4.32844 41.1849 3.8553 41.0527 3.60977C40.7165 2.99596 41.2151 2.10081 41.5305 1.46652C42.1783 0.167284 43.6005 -0.282851 44.6071 0.497203C44.6524 0.28492 44.8847 0.14426 45.1831 0.0496296C45.3096 0.0118803 45.439 -0.00444486 45.5684 0.00103294C46.8527 0.0317215 48.6355 1.46652 48.7054 3.20312C48.7111 3.37703 48.7205 3.56629 48.73 3.76833C48.8206 5.7121 48.7092 7.50496 49.6894 8.92696C50.0445 9.44102 50.0482 11.8758 49.9122 13.1291C49.5591 12.6252 49.3079 10.6661 48.7979 10.5919Z" fill="#2F2E41"/>
<path d="M19.5317 6.6049C19.2653 7.50331 18.5138 9.27008 18.412 10.2339L18.4578 10.1729C18.5452 10.3751 18.6445 10.5673 18.7548 10.7479C18.9524 10.4668 19.1911 10.2446 19.4556 10.0953C19.3112 10.4967 19.2275 10.9332 19.2096 11.379C19.4932 12.5829 20.8043 12.0468 21.5725 11.9153C22.3396 13.1036 23.3602 13.4137 24.6967 12.7305C25.0705 12.7826 25.4889 12.8143 25.7509 12.5152C26.0128 12.2161 25.8568 11.6622 25.9977 11.2432C27.0015 8.25906 26.0751 7.18239 25.2881 5.82926C25.1149 5.53149 25.1156 5.08711 24.9048 4.80301C24.6124 4.4092 24.1641 4.28806 23.7509 4.19103C23.8582 4.19869 23.9652 4.1688 24.0616 4.10423C24.1579 4.03966 24.2404 3.94258 24.301 3.82235C24.3542 3.70122 24.3816 3.56255 24.3803 3.42164C24.379 3.28073 24.349 3.14305 24.2935 3.02378C24.1457 2.69195 23.8386 2.49898 23.5423 2.45077C23.2503 2.42393 22.9571 2.45806 22.6728 2.55198C22.4887 2.58478 22.3104 2.66196 22.1463 2.77987C22.0689 2.83579 22.006 2.92238 21.9659 3.02806C21.9258 3.13373 21.9105 3.25346 21.922 3.37123C21.9467 3.47999 21.9892 3.5798 22.0464 3.66321C22.1035 3.74662 22.1738 3.81149 22.2521 3.85297C22.3714 3.92127 22.4968 3.96778 22.6252 3.99128C22.0357 3.88768 21.4368 4.02963 20.9083 4.39825C20.2459 4.87668 19.799 5.70696 19.5317 6.6049Z" fill="#2F2E41"/>
<path d="M23.1182 11.6418C24.4258 11.6418 25.4858 10.2063 25.4858 8.43553C25.4858 6.66475 24.4258 5.22925 23.1182 5.22925C21.8105 5.22925 20.7505 6.66475 20.7505 8.43553C20.7505 10.2063 21.8105 11.6418 23.1182 11.6418Z" fill="#C78F8F"/>
<path d="M20.8399 6.71638C20.9772 7.27823 21.3695 7.45928 21.7321 7.5722C21.8464 7.60828 21.9615 7.64191 22.0776 7.67183C22.1204 7.59931 22.166 7.52824 22.2136 7.46106C22.4112 7.18 22.6499 6.95775 22.9144 6.80848C22.8 7.12553 22.724 7.46543 22.6892 7.81516C22.9084 7.85822 23.1288 7.89341 23.3505 7.92074C23.538 7.97479 23.7337 7.92921 23.8971 7.79344C24.0605 7.65766 24.1791 7.44206 24.2285 7.19119C24.4303 7.638 24.6688 8.05879 24.9951 8.23627C25.1817 8.32705 25.3848 8.33452 25.5747 8.25757C25.7646 8.18063 25.9314 8.02332 26.0505 7.80871C26.2386 7.45862 26.369 7.05794 26.4329 6.63372C26.5255 6.13618 26.577 5.56302 26.3952 5.24735C26.2495 4.99186 25.9983 4.98728 25.7665 5.00994C25.2549 5.06309 24.7487 5.18736 24.2559 5.38081L24.2142 5.50784C24.2989 4.81883 24.1152 4.15591 23.7753 3.92015C23.546 3.76252 23.2702 3.78895 23.0022 3.82092C22.6579 3.84172 22.3178 3.9308 21.9926 4.08531C21.6196 4.27962 21.3 4.62526 21.0776 5.07494C20.8397 5.56407 20.7215 6.23116 20.8399 6.71638Z" fill="#2F2E41"/>
<path d="M24.2153 3.71973C24.1919 3.71039 24.2524 3.72239 24.2314 3.72315C24.2419 3.72234 24.2522 3.72037 24.2624 3.71728C24.2642 3.7168 24.2877 3.70662 24.2721 3.71411C24.3072 3.69987 24.3386 3.67215 24.3624 3.63429C24.418 3.54115 24.4616 3.43599 24.4914 3.32323C24.5291 3.1742 24.5896 3.03764 24.6689 2.9225C24.6914 2.89187 24.719 2.86886 24.7493 2.85534C24.7796 2.84182 24.8119 2.83818 24.8434 2.8447C24.875 2.85122 24.9049 2.86773 24.9309 2.89288C24.9569 2.91804 24.9781 2.95112 24.9928 2.98946C25.0228 3.13737 25.0125 3.29491 24.9639 3.43344C24.93 3.5744 24.8795 3.70703 24.8144 3.8262C24.7052 4.02108 24.5566 4.16876 24.3866 4.25124C24.1898 4.34804 23.9751 4.35634 23.7746 4.27492C23.7481 4.26003 23.7253 4.23503 23.7092 4.20296C23.693 4.17089 23.684 4.13314 23.6834 4.0943C23.6828 4.05546 23.6905 4.01721 23.7056 3.98421C23.7208 3.95122 23.7427 3.9249 23.7687 3.90846L24.1032 3.72304C24.1208 3.71245 24.1397 3.70666 24.159 3.706C24.1782 3.70534 24.1974 3.70983 24.2154 3.7192C24.2333 3.72858 24.2498 3.74266 24.2637 3.76064C24.2776 3.77862 24.2888 3.80015 24.2966 3.82399C24.3044 3.84784 24.3087 3.87353 24.3091 3.8996C24.3096 3.92566 24.3062 3.9516 24.2993 3.97592C24.2923 4.00023 24.2819 4.02246 24.2686 4.04132C24.2553 4.06018 24.2394 4.0753 24.2218 4.08582L24.2212 4.08619L23.8867 4.27161L23.8808 3.90515C23.9225 3.92146 23.9654 3.93141 24.0088 3.9348C24.0551 3.94107 24.1018 3.93841 24.1475 3.92688C24.1913 3.9191 24.2343 3.90489 24.2758 3.8845C24.3024 3.87135 24.3285 3.85638 24.354 3.83965C24.3632 3.83357 24.3724 3.82725 24.3815 3.8207C24.3808 3.82118 24.4197 3.79049 24.4027 3.80491C24.4459 3.76747 24.4865 3.72465 24.5239 3.677C24.5371 3.66011 24.5493 3.64178 24.5603 3.6222C24.5793 3.5905 24.597 3.55732 24.6132 3.52282C24.6461 3.44977 24.6722 3.37145 24.6909 3.28966C24.6994 3.25529 24.7066 3.22034 24.7124 3.18495C24.714 3.16553 24.7166 3.14628 24.7202 3.12733C24.7326 3.08219 24.7178 3.15369 24.7321 3.17325L24.7937 3.23478C24.8053 3.23945 24.8175 3.24054 24.8295 3.23795C24.8414 3.23536 24.8527 3.22917 24.8627 3.21984C24.87 3.20592 24.8684 3.20823 24.8579 3.22676C24.8457 3.24858 24.8345 3.27143 24.8244 3.29516C24.8023 3.35104 24.7823 3.4084 24.7645 3.46703C24.7277 3.59171 24.6812 3.7107 24.6257 3.822C24.5714 3.93457 24.4922 4.02104 24.3994 4.06907C24.3066 4.11711 24.205 4.12426 24.1091 4.08951C24.0731 4.0701 24.0441 4.0323 24.0285 3.98426C24.0129 3.93622 24.0119 3.88179 24.0257 3.83272C24.0404 3.78437 24.0683 3.74561 24.1037 3.72455C24.139 3.70348 24.179 3.70176 24.2153 3.71973Z" fill="#2F2E41"/>
</g>
<defs>
<clipPath id="clip0_27_168">
<rect width="84.3247" height="76" fill="white" transform="translate(0.675293)"/>
</clipPath>
</defs>
</svg>
